#!OML:ASF H:\Terrain\Patient Classification 1\Walking\steve\steve.ASF
:FULLY-SPECIFIED
:DEGREES
287
root 8.97042 16.1929 34.5723 9.54823 -9.41906 -9.64795
lowerback 0.364122 8.78075 9.3096
upperback -1.929 11.8566 1.99666
thorax -0.787893 5.82082 -2.97728
lowerneck -11.7277 -3.26089 -4.74868
upperneck 17.5549 -4.39163 4.49104
head 7.535 -1.99323 1.81833
rclavicle 9.59385e-014 3.73715e-014
rhumerus 19.8143 9.76989 -70.2665
rradius 35.3263
rwrist -27.0572
rhand -19.1749 -38.7771
rfingers 7.12502
rthumb 7.13633 -68.6368
lclavicle 9.59385e-014 3.73715e-014
lhumerus -70.3096 3.41836 54.0722
lradius 12.2648
lwrist -15.1606
lhand -13.3157 -13.2139
lfingers 7.12502
lthumb 12.7889 16.3744
rfemur 10.9745 0.426045 28.7135
rtibia 15.6002
rfoot -15.4433 19.6457
rtoes -11.9071
lfemur -49.5913 -1.91412 1.75194
ltibia 23.2689
lfoot -29.4562 18.4436
ltoes -3.06673
288
root 8.99281 16.1257 34.8311 9.35591 -10.0904 -10.211
lowerback 0.659833 9.1841 9.67522
upperback -1.94811 12.433 1.91832
thorax -0.814782 6.10103 -3.2611
lowerneck -11.8831 -3.46602 -5.1891
upperneck 17.8274 -4.70198 5.06303
head 7.69258 -2.11369 2.04566
rclavicle -1.33211e-013 -1.63003e-014
rhumerus 21.1317 9.5553 -69.1188
rradius 35.0865
rwrist -27.6176
rhand -21.6496 -36.1891
rfingers 7.12502
rthumb 4.74708 -66.1159
lclavicle -1.33211e-013 -1.63003e-014
lhumerus -71.3462 3.01381 51.1595
lradius 11.6968
lwrist -15.6782
lhand -13.846 -13.1271
lfingers 7.12502
lthumb 12.2776 16.4925
rfemur 13.3596 0.412294 28.7375
rtibia 13.336
rfoot -13.8319 20.2906
rtoes -11.6248
lfemur -49.8088 -3.25254 4.30324
ltibia 22.5257
lfoot -31.8488 20.3467
ltoes -4.53032
289
root 9.02301 16.0736 35.1441 8.8763 -10.7774 -9.89116
lowerback 0.21442 9.71086 9.48133
upperback -1.67384 13.0519 1.66198
thorax -0.186856 6.44685 -3.2672
lowerneck -11.4932 -3.72438 -5.89927
upperneck 17.5832 -5.05552 5.72422
head 7.59859 -2.27613 2.34849
rclavicle 4.55465e-014 -2.04748e-014
rhumerus 22.2112 9.32601 -67.5855
rradius 35.0497
rwrist -29.218
rhand -25.8607 -34.1459
rfingers 7.12502
rthumb 0.680295 -64.1246
lclavicle 4.55465e-014 -2.04748e-014
lhumerus -71.9465 2.77275 47.5007
lradius 10.8179
lwrist -17.0711
lhand -14.3933 -13.2978
lfingers 7.12502
lthumb 11.7498 16.3526
rfemur 16.1299 0.0184152 27.5075
rtibia 11.1539
rfoot -10.9957 21.9604
rtoes -5.97598
lfemur -49.3959 -3.65732 4.7774
ltibia 21.6544
lfoot -33.1024 20.3886
ltoes -2.88336
290
root 9.05068 16.0054 35.4339 8.39465 -11.2273 -9.74234
lowerback 0.378687 10.2264 9.86296
upperback -1.56721 13.7469 1.12674
thorax 0.136316 6.80837 -3.94737
lowerneck -11.1605 -4.14516 -5.99038
upperneck 17.208 -5.6754 6.02619
head 7.46742 -2.55872 2.4013
rclavicle -1.06226e-014 -7.85199e-015
rhumerus 23.2234 8.50809 -66.4022
rradius 34.7894
rwrist -30.3012
rhand -17.7054 -39.7006
rfingers 7.12502
rthumb 8.55465 -69.5073
lclavicle -1.06226e-014 -7.85199e-015
lhumerus -72.4166 1.79475 44.45
lradius 10.9289
lwrist -17.3221
lhand -14.3316 -12.7886
lfingers 7.12502
lthumb 11.8094 16.8585
rfemur 19.21 0.519344 26.8644
rtibia 8.11585
rfoot -7.22205 22.326
rtoes 2.02184
lfemur -49.1858 -4.19615 5.4729
ltibia 20.9672
lfoot -33.0648 21.6335
ltoes -2.30687
291
root 9.07712 15.9425 35.6944 8.13756 -11.9611 -9.21256
lowerback 0.156186 10.3607 8.59552
upperback -1.33005 13.8797 1.22498
thorax 0.214232 6.89397 -3.15641
lowerneck -12.0582 -4.05696 -6.58595
upperneck 18.1929 -5.49995 6.35296
head 7.96738 -2.46116 2.61767
rclavicle -6.43006e-014 -9.93923e-015
rhumerus 25.0924 9.05694 -64.9701
rradius 34.3479
rwrist -30.6456
rhand -17.6252 -39.6178
rfingers 7.12502
rthumb 8.63203 -69.4213
lclavicle -6.43006e-014 -9.93923e-015
lhumerus -74.3615 2.85608 39.4778
lradius 11.4286
lwrist -19.3578
lhand -14.8599 -12.8422
lfingers 7.12502
lthumb 11.2999 16.8334
rfemur 22.322 1.28314 25.907
rtibia 4.09325
rfoot -4.57742 21.6426
rtoes 2.52467
lfemur -49.1136 -4.37316 5.79976
ltibia 20.2727
lfoot -32.842 22.7113
ltoes 0.453053
292
root 9.09495 15.8823 35.9611 8.19949 -12.7769 -9.3329
lowerback 0.445003 10.8004 8.72172
upperback -1.65025 14.5131 0.714758
thorax -0.0444295 7.19304 -3.77009
lowerneck -11.3093 -4.22351 -6.73013
upperneck 17.7909 -5.84971 6.98401
head 7.74782 -2.59634 2.8224
rclavicle -5.17244e-014 1.22253e-014
rhumerus 25.4049 7.1905 -65.6142
rradius 34.5395
rwrist -28.7418
rhand -18.3341 -38.3537
rfingers 7.12502
rthumb 7.94784 -68.1843
lclavicle -5.17244e-014 1.22253e-014
lhumerus -75.2674 2.42022 34.5384
lradius 11.5936
lwrist -20.4501
lhand -17.3269 -13.6806
lfingers 7.12502
lthumb 8.9199 16.1108
rfemur 25.2959 2.21782 25.679
rtibia 1.27222e-014
rfoot -2.32638 20.4988
rtoes 1.25581
lfemur -48.9586 -4.18412 6.82907
ltibia 19.3871
lfoot -37.6425 18.9536
ltoes 10.642
293
root 9.11312 15.8166 36.2307 8.25164 -13.3723 -9.71298
lowerback 0.540266 11.1201 8.87031
upperback -1.76174 14.9558 0.561337
thorax -0.0811489 7.40901 -3.99225
lowerneck -10.4936 -4.45155 -7.37153
upperneck 17.0898 -6.20673 7.77201
head 7.44476 -2.76256 3.16067
rclavicle 3.75392e-014 -1.59028e-014
rhumerus 25.9487 5.68945 -65.7687
rradius 34.8415
rwrist -26.6791
rhand -19.317 -36.4685
rfingers 7.12502
rthumb 6.99917 -66.3328
lclavicle 3.75392e-014 -1.59028e-014
lhumerus -76.067 2.1195 30.6436
lradius 11.4159
lwrist -20.8749
lhand -18.9597 -13.8973
lfingers 7.12502
lthumb 7.34404 15.9552
rfemur 26.2704 2.9462 25.7528
rtibia 3.18055e-015
rfoot -0.980268 20.0302
rtoes 5.1427
lfemur -48.6895 -4.22351 8.03882
ltibia 18.563
lfoot -34.6285 29.2099
ltoes -14.0248
294
root 9.13506 15.7509 36.506 8.16259 -13.7188 -9.90108
lowerback 0.707535 11.3947 8.89946
upperback -1.89291 15.3462 0.39741
thorax -0.20754 7.59577 -4.1901
lowerneck -10.4528 -4.41453 -7.12474
upperneck 17.1854 -6.17375 7.59772
head 7.45238 -2.74577 3.06685
rclavicle -2.24999e-014 -4.57205e-015
rhumerus 26.8333 5.17409 -64.9208
rradius 34.3436
rwrist -26.2384
rhand -19.3425 -35.6983
rfingers 7.12502
rthumb 6.97457 -65.5634
lclavicle -2.24999e-014 -4.57205e-015
lhumerus -76.6677 2.08551 25.4478
lradius 11.1377
lwrist -22.9116
lhand -17.4879 -12.9246
lfingers 7.12502
lthumb 8.76454 16.8735
rfemur 27.3775 3.40658 25.661
rtibia -2.8625e-014
rfoot -0.263307 19.3737
rtoes 6.04251
lfemur -48.5993 -4.60253 9.03584
ltibia 17.9382
lfoot -34.579 28.5962
ltoes -13.7123
295
root 9.16306 15.6875 36.8003 7.79993 -14.3817 -9.96135
lowerback 0.425999 11.6613 8.66974
upperback -1.74956 15.6602 0.462595
thorax 0.06148 7.7693 -3.91216
lowerneck -9.97855 -4.96928 -8.05513
upperneck 17.7327 -6.88305 7.83954
head 7.64648 -3.12984 3.23744
rclavicle 5.57715e-014 -9.34288e-015
rhumerus 27.7266 5.1472 -64.0247
rradius 34.0597
rwrist -26.2219
rhand -18.9653 -36.2815
rfingers 7.12502
rthumb 7.3386 -66.1343
lclavicle 5.57715e-014 -9.34288e-015
lhumerus -77.5774 2.33244 19.4164
lradius 10.8707
lwrist -25.8735
lhand -15.7349 -11.8597
lfingers 7.12502
lthumb 10.4559 17.8603
rfemur 28.8029 4.16115 25.3851
rtibia 1.90833e-014
rfoot -0.121459 18.9015
rtoes 1.30487
lfemur -48.2821 -4.97337 9.72109
ltibia 18.0402
lfoot -37.6788 23.0227
ltoes 2.656
296
root 9.16932 15.6075 37.0458 8.41578 -14.2449 -9.9639
lowerback -0.440949 11.5386 7.99645
upperback -1.2263 15.3807 0.409456
thorax 0.893286 7.67754 -3.40463
lowerneck -12.3286 -4.94641 -8.05876
upperneck 18.0544 -6.64154 7.50809
head 8.14509 -2.9904 3.11195
rclavicle -1.97045e-014 1.78906e-015
rhumerus 30.1849 4.58052 -63.5086
rradius 33.936
rwrist -25.7789
rhand -18.9611 -36.2989
rfingers 7.12502
rthumb 7.34272 -66.1515
lclavicle -1.97045e-014 1.78906e-015
lhumerus -78.4027 4.62347 12.2218
lradius 10.4898
lwrist -30.1929
lhand -14.9995 -11.3471
lfingers 7.12502
lthumb 11.1652 18.3358
rfemur 29.129 4.16974 25.2003
rtibia -3.18055e-015
rfoot 0.241823 18.4935
rtoes -2.97332
lfemur -49.5098 -0.128831 6.18721
ltibia 18.498
lfoot -30.6893 21.666
ltoes 10.5449
297
root 9.20974 15.5404 37.3851 8.00245 -15.4384 -10.117
lowerback 0.635899 12.036 8.27951
upperback -1.75616 16.1745 -0.015891
thorax 0.0414021 8.03205 -4.20016
lowerneck -11.8236 -4.96263 -7.79139
upperneck 18.0732 -6.79376 7.70044
head 8.06971 -3.03757 3.1241
rclavicle 1.51325e-014 -6.75868e-015
rhumerus 29.8153 3.98823 -63.5463
rradius 33.9045
rwrist -25.2372
rhand -17.7279 -36.52
rfingers 7.12502
rthumb 8.53293 -66.3276
lclavicle 1.51325e-014 -6.75868e-015
lhumerus -78.6216 5.08917 2.33442
lradius 10.0816
lwrist -37.4721
lhand -14.295 -10.9254
lfingers 7.12502
lthumb 11.8446 18.7196
rfemur 30.6064 5.52171 24.8244
rtibia -1.08139e-013
rfoot 1.54871 17.988
rtoes -1.59286
lfemur -48.8542 1.24746 5.54929
ltibia 19.3041
lfoot -30.8509 23.2772
ltoes -15.2014
